{"title":"Apartment.1303.2013.BRRip.XviD.Ac3-KoDeKinG [PublicHash]","uid":8537760,"size":1347339735,"categoryP":"video","categoryS":"movies","magnet":"?xt=urn:btih:b6f29756c33a0cd06ed7b656a78cdb84fdcacfa7&amp;dn=Apartment.1303.2013.BRRip.XviD.Ac3-KoDeKinG+%5BPublicHash%5D&amp;tr=udp%3A%2F%2Ftracker.openbittorrent.com%3A80&amp;tr=udp%3A%2F%2Fopen.demonii.com%3A1337&amp;tr=udp%3A%2F%2Ftracker.coppersurfer.tk%3A6969&amp;tr=udp%3A%2F%2Fexodus.desync.com%3A6969","seeders":1,"leechers":1,"uploader":"R0thschild","files":4,"time":1370303502,"description":"General Info\nENCODER: Kobe\nSource Vieeo: 1080p ROVERS\nSource Audio: 1080p ROVERS\nChannel: 6 channels\nIMDB: http://www.imdb.com/title/tt1540767/\nsubs: None\nNEWS: Smokin weed today, its the Circle of life!\n\nVideo\nID: 0\nFormat: MPEG-4 Visual\nFormat profile: Advanced Simple@L5\nFormat settings, BVOP: 2\nFormat settings, QPel: No\nFormat settings, GMC: No warppoints\nFormat settings, Matrix: Default (H.263)\nCodec ID: XVID\nCodec ID/Hint: XviD\nDuration: 1h 25mn\nBit rate: 1 700 Kbps\nWidth: 720 pixels\nHeight: 304 pixels\nDisplay aspect ratio: 2.35:1\nFrame rate: 23.976 fps\nColor space: YUV\nChroma subsampling: 4:2:0\nBit depth: 8 bits\nScan type: Progressive\nCompression mode: Lossy\nBits/(Pixel*Frame): 0.324\nStream size: 1.01 GiB (81%)\nWriting library: XviD 1.2.1 (UTC 2008-12-04)\n\nAudio\nID: 1\nFormat: AC-3\nFormat/Info: Audio Coding 3\nMode extension: CM (complete main)\nFormat settings, Endianness: Big\nCodec ID: 2000\nDuration: 1h 25mn\nBit rate mode: Constant\nBit rate: 384 Kbps\nChannel(s): 6 channels\nChannel positions: Front: L C R, Side: L R, LFE\nSampling rate: 48.0 KHz\nBit depth: 16 bits\nCompression mode: Lossy\nStream size: 234 MiB (18%)\nAlignment: Aligned on interleaves\nInterleave, duration: 64 ms (1.53 video frames)\nInterleave, preload duration: 192 ms\nTitle: Apartment.track_2","torrent":{"xt":"urn:btih:b6f29756c33a0cd06ed7b656a78cdb84fdcacfa7","amp;dn":"Apartment.1303.2013.BRRip.XviD.Ac3-KoDeKinG+%5BPublicHash%5D","amp;tr":["udp%3A%2F%2Ftracker.openbittorrent.com%3A80","udp%3A%2F%2Fopen.demonii.com%3A1337","udp%3A%2F%2Ftracker.coppersurfer.tk%3A6969","udp%3A%2F%2Fexodus.desync.com%3A6969"],"infoHash":"b6f29756c33a0cd06ed7b656a78cdb84fdcacfa7","infoHashBuffer":{"type":"Buffer","data":[182,242,151,86,195,58,12,208,110,215,182,86,167,140,219,132,253,202,207,167]},"announce":[],"urlList":[]}}